# xmcd
#
# Track frame offsets: 
#        150
#        21520
#        47354
#        65842
#        89494
#        119429
#        146663
#        167503
#        190861
#        213868
#        235916
#        263182
#        285504
#        311432
#
# Disc length: 4479 seconds
#
# Revision: 0
# Processed by: cddbd v1.5.2PL0 Copyright (c) Steve Scherf et al.
# Submitted via: ExactAudioCopy v1.0b3
#
DISCID=c9117d0e
DTITLE=Various Artist - Tieng Hat Chim Da Da
DYEAR=2001
DGENRE=
TTITLE0=Chung Tu Luu - Tieng hat chim da da
TTITLE1=Ha Vy - Duong lang nam ay
TTITLE2=Lam Gia Minh - Phien khuc chieu mua
TTITLE3=Hong Truc - Mua dem tinh nho
TTITLE4=My Huyen, Anh Tan - Hai nam tinh lan dan
TTITLE5=Truong Vu - Thanh pho buon
TTITLE6=Phi Nhung - Goi nho que huong
TTITLE7=Chung Tu Luu - Thuo ay co em
TTITLE8=Hong Truc - Nam cum nui que huong
TTITLE9=Lam Gia Minh - Toi se ve (Hen mot mua Xuan)
TTITLE10=Thanh Huyen - Con thuong goc bep chai he
TTITLE11=Truong Vu - La thu tien tuyen (Co lang gieng)
TTITLE12=Chung Tu Luu - Doi mat lieu trai
TTITLE13=Huong Lan - Bien tinh
EXTD=
EXTT0=
EXTT1=
EXTT2=
EXTT3=
EXTT4=
EXTT5=
EXTT6=
EXTT7=
EXTT8=
EXTT9=
EXTT10=
EXTT11=
EXTT12=
EXTT13=
PLAYORDER=
